{
  "asset": {
    "version": "2.0",
    "generator": "THREE.GLTFExporter r165"
  },
  "scenes": [
    {
      "name": "Scene",
      "nodes": [
        1,
        2,
        3
      ]
    }
  ],
  "scene": 0,
  "nodes": [
    {
      "matrix": [
        1,
        0,
        0,
        0,
        0,
        1,
        0,
        0,
        0,
        0,
        1,
        0,
        -4.653505325317383,
        1.4974353313446045,
        -0.0813706538273955,
        1
      ],
      "name": "Cube",
      "extras": {
        "name": "Cube"
      },
      "mesh": 0
    },
    {
      "matrix": [
        1,
        0,
        0,
        0,
        0,
        1,
        0,
        0,
        0,
        0,
        1,
        0,
        4.988320149587592,
        -0.10882168729591228,
        0.0544108436482104,
        1
      ],
      "name": "poli_p1.glb",
      "children": [
        0
      ]
    },
    {
      "matrix": [
        1,
        0,
        0,
        0,
        0,
        0.9593139745400575,
        -0.2823414568428764,
        0,
        0,
        0.2823414568428764,
        0.9593139745400575,
        0,
        0,
        6.103134016758995,
        29.999748690952433,
        1
      ],
      "name": "PerspectiveCamera",
      "camera": 0
    },
    {
      "matrix": [
        1,
        0,
        0,
        0,
        0,
        1,
        0,
        0,
        0,
        0,
        1,
        0,
        0,
        28.3577396908187,
        0,
        1
      ],
      "name": "AmbientLight"
    }
  ],
  "bufferViews": [
    {
      "buffer": 0,
      "byteOffset": 0,
      "byteLength": 37680,
      "target": 34962,
      "byteStride": 12
    },
    {
      "buffer": 0,
      "byteOffset": 37680,
      "byteLength": 37680,
      "target": 34962,
      "byteStride": 12
    },
    {
      "buffer": 0,
      "byteOffset": 75360,
      "byteLength": 25120,
      "target": 34962,
      "byteStride": 8
    },
    {
      "buffer": 0,
      "byteOffset": 100480,
      "byteLength": 17676,
      "target": 34963
    }
  ],
  "buffers": [
    {
      "byteLength": 118156,
      "uri": "data:application/octet-stream;base64,"
    }
  ],
  "accessors": [
    {
      "bufferView": 0,
      "componentType": 5126,
      "count": 3140,
      "max": [
        15.49350357055664,
        1.502564787864685,
        16.62955093383789
      ],
      "min": [
        -20.317094802856445,
        -1.4974353313446045,
        -18.400449752807617
      ],
      "type": "VEC3"
    },
    {
      "bufferView": 1,
      "componentType": 5126,
      "count": 3140,
      "max": [
        1,
        1,
        1
      ],
      "min": [
        -1,
        -1,
        -1
      ],
      "type": "VEC3"
    },
    {
      "bufferView": 2,
      "componentType": 5126,
      "count": 3140,
      "max": [
        0.8750000596046448,
        1
      ],
      "min": [
        0,
        0
      ],
      "type": "VEC2"
    },
    {
      "bufferView": 3,
      "componentType": 5123,
      "count": 8838,
      "max": [
        3139
      ],
      "min": [
        0
      ],
      "type": "SCALAR"
    }
  ],
  "materials": [
    {
      "pbrMetallicRoughness": {
        "metallicFactor": 1,
        "roughnessFactor": 1
      },
      "emissiveFactor": [
        0.22696587349938613,
        0.22696587349938613,
        0.22696587349938613
      ]
    }
  ],
  "meshes": [
    {
      "primitives": [
        {
          "mode": 4,
          "attributes": {
            "POSITION": 0,
            "NORMAL": 1,
            "TEXCOORD_0": 2
          },
          "indices": 3,
          "material": 0
        }
      ]
    }
  ],
  "cameras": [
    {
      "type": "perspective",
      "perspective": {
        "aspectRatio": 1.641357027463651,
        "yfov": 0.8726646259971648,
        "zfar": 2000,
        "znear": 0.1
      },
      "name": "PerspectiveCamera"
    }
  ]
}